<svg width="913" height="251" viewBox="0 0 913 251" fill="none" xmlns="http://www.w3.org/2000/svg">
<path d="M799.561 214.33C796.509 194.744 817.621 186.605 817.621 176.176C817.621 170.453 813.678 167.655 808.464 167.655C803.25 167.655 799.561 170.326 795.619 174.269L783.155 162.823C790.15 154.81 799.816 149.469 811.262 149.469C827.159 149.469 839.368 156.972 839.368 174.65C839.368 192.328 817.621 197.542 819.274 214.33H799.561ZM809.354 250.449C801.469 250.449 795.873 244.217 795.873 236.332C795.873 228.447 801.469 222.342 809.354 222.342C817.112 222.342 822.835 228.447 822.835 236.332C822.835 244.217 817.112 250.449 809.354 250.449Z" fill="#EBEBEB"/>
<path d="M767.469 250.448C749.282 250.448 741.906 238.875 741.906 221.833V193.981H732.113V177.193L743.305 176.303L745.849 157.099H764.544V176.303H781.586V193.981H764.544V221.578C764.544 229.591 768.359 232.77 773.701 232.77C775.99 232.77 778.534 232.007 780.314 231.371L783.875 247.777C780.06 248.922 774.845 250.448 767.469 250.448Z" fill="#EBEBEB"/>
<path d="M659.087 248.667V176.302H677.528L679.181 185.332H679.563C685.54 179.481 692.917 174.521 702.709 174.521C718.479 174.521 725.22 185.84 725.22 203.9V248.667H702.582V206.698C702.582 196.651 699.911 193.853 694.188 193.853C689.101 193.853 686.049 196.142 681.725 200.339V248.667H659.087Z" fill="#EBEBEB"/>
<path d="M619.952 250.447C599.094 250.447 583.07 236.458 583.07 212.421C583.07 189.02 599.985 174.521 617.408 174.521C638.266 174.521 648.44 189.656 648.44 209.369C648.44 213.438 647.931 217.381 647.422 219.161H604.945C606.979 229.081 613.847 233.151 623.004 233.151C628.218 233.151 633.051 231.625 638.266 228.573L645.769 242.181C638.266 247.522 628.346 250.447 619.952 250.447ZM604.563 204.281H629.236C629.236 197.159 626.056 191.818 617.79 191.818C611.558 191.818 606.089 195.76 604.563 204.281Z" fill="#EBEBEB"/>
<path d="M550.094 248.669V176.304H572.732V248.669H550.094ZM561.413 166.257C553.782 166.257 548.822 161.679 548.822 154.557C548.822 147.562 553.782 142.983 561.413 142.983C568.917 142.983 574.004 147.562 574.004 154.557C574.004 161.679 568.917 166.257 561.413 166.257Z" fill="#EBEBEB"/>
<path d="M532.286 250.447C516.77 250.447 511.683 240.273 511.683 225.139V147.051H534.321V225.902C534.321 230.735 536.483 232.133 538.264 232.133C539.027 232.133 539.535 232.134 540.807 231.879L543.478 248.54C541.061 249.557 537.373 250.447 532.286 250.447Z" fill="#EBEBEB"/>
<path d="M479.111 250.447C458.763 250.447 443.12 236.458 443.12 212.421C443.12 188.511 460.925 174.521 481.146 174.521C489.921 174.521 496.789 177.574 502.258 182.279L491.702 196.651C488.395 193.98 485.597 192.835 482.545 192.835C472.498 192.835 466.266 200.466 466.266 212.421C466.266 224.503 472.88 232.134 481.655 232.134C486.233 232.134 490.557 229.972 494.246 227.046L503.021 241.926C495.899 248.158 486.742 250.447 479.111 250.447Z" fill="#EBEBEB"/>
<path d="M366.763 248.667V176.302H385.204L386.857 188.893H387.239C392.581 179.227 400.593 174.521 407.842 174.521C412.166 174.521 414.582 175.157 416.617 176.048L412.929 195.506C410.258 194.87 408.096 194.361 404.917 194.361C399.575 194.361 393.089 197.795 389.401 207.334V248.667H366.763Z" fill="#EBEBEB"/>
<path d="M309.241 250.449C293.344 250.449 286.603 239.13 286.603 221.071V176.304H309.241V218.273C309.241 228.193 311.912 231.118 317.635 231.118C322.722 231.118 325.901 229.083 329.717 223.741V176.304H352.355V248.669H333.914L332.26 238.749H331.752C325.774 245.871 319.034 250.449 309.241 250.449Z" fill="#EBEBEB"/>
<path d="M241.617 250.447C223.176 250.447 206.134 236.458 206.134 212.421C206.134 188.511 223.176 174.521 241.617 174.521C259.931 174.521 276.973 188.511 276.973 212.421C276.973 236.458 259.931 250.447 241.617 250.447ZM241.617 232.134C250.011 232.134 253.826 224.503 253.826 212.421C253.826 200.466 250.011 192.835 241.617 192.835C233.096 192.835 229.281 200.466 229.281 212.421C229.281 224.503 233.096 232.134 241.617 232.134Z" fill="#EBEBEB"/>
<path d="M129.777 248.667V176.302H148.218L149.872 188.893H150.253C155.595 179.227 163.607 174.521 170.856 174.521C175.18 174.521 177.597 175.157 179.632 176.048L175.943 195.506C173.273 194.87 171.111 194.361 167.931 194.361C162.59 194.361 156.103 197.795 152.415 207.334V248.667H129.777Z" fill="#EBEBEB"/>
<path d="M84.0288 250.447C65.5879 250.447 48.5459 236.458 48.5459 212.421C48.5459 188.511 65.5879 174.521 84.0288 174.521C102.343 174.521 119.385 188.511 119.385 212.421C119.385 236.458 102.343 250.447 84.0288 250.447ZM84.0288 232.134C92.4226 232.134 96.238 224.503 96.238 212.421C96.238 200.466 92.4226 192.835 84.0288 192.835C75.5078 192.835 71.6925 200.466 71.6925 212.421C71.6925 224.503 75.5078 232.134 84.0288 232.134Z" fill="#EBEBEB"/>
<path d="M11.065 248.666V193.979H1.39941V177.191L11.065 176.428V173.503C11.065 158.242 18.3142 145.27 38.4085 145.27C44.7674 145.27 49.9818 146.541 53.1613 147.686L49.0915 164.474C46.8023 163.456 44.1315 162.947 41.7152 162.947C36.7552 162.947 33.7029 165.618 33.7029 172.867V176.301H46.548V193.979H33.7029V248.666H11.065Z" fill="#EBEBEB"/>
<path d="M909.619 103.397C891.178 103.397 874.136 89.4069 874.136 65.37C874.136 41.4604 891.178 27.4707 909.619 27.4707C927.933 27.4707 944.975 41.4604 944.975 65.37C944.975 89.4069 927.933 103.397 909.619 103.397ZM909.619 85.0828C918.013 85.0828 921.828 77.452 921.828 65.37C921.828 53.4152 918.013 45.7845 909.619 45.7845C901.098 45.7845 897.283 53.4152 897.283 65.37C897.283 77.452 901.098 85.0828 909.619 85.0828Z" fill="#EBEBEB"/>
<path d="M824.257 103.397C806.197 103.397 794.624 89.0253 794.624 65.37C794.624 41.7147 809.504 27.4707 824.511 27.4707C832.523 27.4707 837.229 30.3958 841.935 34.9742L841.171 24.164V0H863.809V101.616H845.368L843.715 94.6212H843.206C838.119 99.7083 831.124 103.397 824.257 103.397ZM830.234 84.8284C834.558 84.8284 837.992 83.4294 841.171 78.7238V50.2357C837.738 47.0562 833.668 45.9116 829.853 45.9116C823.621 45.9116 817.898 51.7618 817.898 65.1156C817.898 78.9781 822.476 84.8284 830.234 84.8284Z" fill="#EBEBEB"/>
<path d="M693.171 101.616V29.2512H711.612L713.266 38.2809H713.647C719.625 32.4307 727.001 27.4707 736.794 27.4707C752.564 27.4707 759.304 38.7896 759.304 56.849V101.616H736.667V59.647C736.667 49.5998 733.996 46.8019 728.273 46.8019C723.186 46.8019 720.133 49.0911 715.809 53.288V101.616H693.171Z" fill="#EBEBEB"/>
<path d="M638.174 103.397C624.821 103.397 616.681 93.4766 616.681 81.3946C616.681 66.1331 628.636 57.8665 656.87 54.8142C656.361 48.9639 653.309 45.5301 645.932 45.5301C640.209 45.5301 634.232 47.8193 626.983 51.8891L619.098 37.0091C628.636 31.2861 638.937 27.4707 650.256 27.4707C668.952 27.4707 679.508 37.8994 679.508 60.5372V101.616H661.067L659.54 94.3669H658.905C652.927 99.7084 646.187 103.397 638.174 103.397ZM645.932 85.8459C650.511 85.8459 653.563 83.6838 656.87 80.1228V68.5495C642.753 70.33 638.174 74.5269 638.174 79.6141C638.174 83.811 641.227 85.8459 645.932 85.8459Z" fill="#EBEBEB"/>
<path d="M588.779 103.397C568.43 103.397 552.787 89.4069 552.787 65.37C552.787 41.4604 570.592 27.4707 590.814 27.4707C599.589 27.4707 606.457 30.523 611.925 35.2286L601.369 49.5998C598.063 46.9291 595.265 45.7845 592.213 45.7845C582.165 45.7845 575.934 53.4152 575.934 65.37C575.934 77.452 582.547 85.0828 591.322 85.0828C595.901 85.0828 600.225 82.9207 603.913 79.9956L612.688 94.8756C605.566 101.107 596.409 103.397 588.779 103.397Z" fill="#EBEBEB"/>
<path d="M492.476 103.397C471.618 103.397 455.594 89.4069 455.594 65.37C455.594 41.9691 472.509 27.4707 489.932 27.4707C510.789 27.4707 520.964 42.605 520.964 62.3177C520.964 66.3875 520.455 70.33 519.946 72.1105H477.469C479.503 82.0305 486.371 86.1002 495.528 86.1002C500.742 86.1002 505.575 84.5741 510.789 81.5218L518.293 95.1299C510.789 100.471 500.869 103.397 492.476 103.397ZM477.087 57.2306H501.76C501.76 50.1086 498.58 44.767 490.314 44.767C484.082 44.767 478.613 48.7096 477.087 57.2306Z" fill="#EBEBEB"/>
<path d="M362.917 101.618L345.112 29.2529H367.495L373.981 61.5564C375.126 68.8056 375.889 75.9276 377.034 83.304H377.67C378.941 75.9276 380.086 68.6784 381.867 61.5564L389.37 29.2529H408.828L416.586 61.5564C418.24 68.8056 419.512 75.9276 421.038 83.304H421.674C422.818 75.9276 423.581 68.8056 424.853 61.5564L431.085 29.2529H452.069L435.027 101.618H408.574L402.47 74.0199C401.071 67.2794 399.926 60.6661 398.654 52.781H398.018C396.874 60.6661 395.856 67.2794 394.584 74.0199L388.734 101.618H362.917Z" fill="#EBEBEB"/>
<path d="M301.128 103.398C282.942 103.398 275.565 91.8249 275.565 74.7829V46.9307H265.772V30.1431L276.964 29.2529L279.508 10.0488H298.203V29.2529H315.245V46.9307H298.203V74.5286C298.203 82.5408 302.018 85.7203 307.36 85.7203C309.649 85.7203 312.193 84.9572 313.973 84.3213L317.534 100.727C313.719 101.872 308.505 103.398 301.128 103.398Z" fill="#EBEBEB"/>
<path d="M220.5 103.397C207.146 103.397 199.006 93.4766 199.006 81.3946C199.006 66.1331 210.961 57.8665 239.195 54.8142C238.686 48.9639 235.634 45.5301 228.257 45.5301C222.534 45.5301 216.557 47.8193 209.308 51.8891L201.423 37.0091C210.961 31.2861 221.263 27.4707 232.582 27.4707C251.277 27.4707 261.833 37.8994 261.833 60.5372V101.616H243.392L241.866 94.3669H241.23C235.252 99.7084 228.512 103.397 220.5 103.397ZM228.257 85.8459C232.836 85.8459 235.888 83.6838 239.195 80.1228V68.5495C225.078 70.33 220.5 74.5269 220.5 79.6141C220.5 83.811 223.552 85.8459 228.257 85.8459Z" fill="#EBEBEB"/>
<path d="M122.291 101.616V0H144.928V24.4184L143.784 37.2634C148.998 32.4306 156.12 27.4707 165.913 27.4707C181.683 27.4707 188.424 38.7896 188.424 56.849V101.616H165.786V59.6469C165.786 49.5998 163.115 46.8019 157.392 46.8019C152.305 46.8019 149.252 49.0911 144.928 53.288V101.616H122.291Z" fill="#EBEBEB"/>
<path d="M17.1692 101.618L0 6.87012H23.1466L29.124 50.111C30.3958 60.0309 31.6676 69.9509 32.9394 80.1252H33.4481C35.2286 69.9509 37.1363 59.9038 39.044 50.111L48.7095 6.87012H67.9136L77.7064 50.111C79.614 59.7766 81.2674 69.9509 83.1751 80.1252H83.811C84.9556 69.9509 86.2273 59.9038 87.372 50.111L93.6037 6.87012H115.097L98.6909 101.618H70.0756L61.5546 60.4125C60.0285 53.1633 58.7567 45.5325 57.8664 38.4105H57.3577C56.0859 45.5325 54.9413 53.1633 53.5424 60.4125L45.2757 101.618H17.1692Z" fill="#EBEBEB"/>
</svg>
