<svg width="33" height="33" viewBox="0 0 33 33" fill="none" xmlns="http://www.w3.org/2000/svg">
<path d="M21.5 10.516C21.4979 10.7812 21.3905 11.0347 21.2014 11.2208C21.0124 11.4068 20.7572 11.5101 20.492 11.508C20.2268 11.5059 19.9733 11.3985 19.7872 11.2094C19.6012 11.0204 19.4979 10.7652 19.5 10.5H17.5C17.5 10.7652 17.3946 11.0196 17.2071 11.2071C17.0196 11.3946 16.7652 11.5 16.5 11.5C16.2348 11.5 15.9804 11.3946 15.7929 11.2071C15.6054 11.0196 15.5 10.7652 15.5 10.5H13.5C13.5021 10.7652 13.3988 11.0204 13.2128 11.2094C13.0267 11.3985 12.7732 11.5059 12.508 11.508C12.2428 11.5101 11.9876 11.4068 11.7985 11.2208C11.6095 11.0347 11.5021 10.7812 11.5 10.516C10.958 10.5541 10.4505 10.796 10.0795 11.193C9.70846 11.59 9.50144 12.1126 9.5 12.656V13.5H23.5V12.656C23.4986 12.1126 23.2915 11.59 22.9205 11.193C22.5495 10.796 22.042 10.5541 21.5 10.516Z" fill="#7FC3DA"/>
<path d="M9.5 21.343C9.50053 21.9149 9.72795 22.4632 10.1324 22.8676C10.5368 23.272 11.0851 23.4995 11.657 23.5H21.343C21.9149 23.4995 22.4632 23.272 22.8676 22.8676C23.272 22.4632 23.4995 21.9149 23.5 21.343V15.5H9.5V21.343Z" fill="#7FC3DA"/>
<path d="M16.5 1.5C13.5333 1.5 10.6332 2.37973 8.16645 4.02796C5.69972 5.67618 3.77713 8.01886 2.64181 10.7597C1.5065 13.5006 1.20945 16.5166 1.78823 19.4264C2.36701 22.3361 3.79562 25.0088 5.89341 27.1066C7.99119 29.2044 10.6639 30.633 13.5737 31.2118C16.4834 31.7906 19.4994 31.4935 22.2403 30.3582C24.9812 29.2229 27.3238 27.3003 28.9721 24.8336C30.6203 22.3668 31.5 19.4667 31.5 16.5C31.4955 12.5231 29.9137 8.71044 27.1016 5.89837C24.2896 3.0863 20.4769 1.5045 16.5 1.5ZM25.5 21.343C25.4987 22.4451 25.0603 23.5017 24.281 24.281C23.5017 25.0603 22.4451 25.4987 21.343 25.5H11.657C10.5549 25.4987 9.49833 25.0603 8.71903 24.281C7.93972 23.5017 7.50133 22.4451 7.50001 21.343V12.656C7.50264 11.5828 7.92061 10.5523 8.66632 9.7805C9.41202 9.0087 10.4275 8.55553 11.5 8.516V8.5C11.5 8.23478 11.6054 7.98043 11.7929 7.79289C11.9804 7.60536 12.2348 7.5 12.5 7.5C12.7652 7.5 13.0196 7.60536 13.2071 7.79289C13.3947 7.98043 13.5 8.23478 13.5 8.5H15.5C15.5 8.23478 15.6054 7.98043 15.7929 7.79289C15.9804 7.60536 16.2348 7.5 16.5 7.5C16.7652 7.5 17.0196 7.60536 17.2071 7.79289C17.3947 7.98043 17.5 8.23478 17.5 8.5H19.5C19.5 8.23478 19.6054 7.98043 19.7929 7.79289C19.9804 7.60536 20.2348 7.5 20.5 7.5C20.7652 7.5 21.0196 7.60536 21.2071 7.79289C21.3947 7.98043 21.5 8.23478 21.5 8.5V8.516C22.5725 8.55553 23.588 9.0087 24.3337 9.7805C25.0794 10.5523 25.4974 11.5828 25.5 12.656V21.343Z" fill="#7FC3DA"/>
</svg>
