<svg width="37" height="37" viewBox="0 0 37 37" fill="none" xmlns="http://www.w3.org/2000/svg">
<g clip-path="url(#clip0_122_16324)">
<path fill-rule="evenodd" clip-rule="evenodd" d="M25.2485 25.6937L29.1095 29.7745C30.2098 30.939 30.2098 32.8238 29.1095 33.9882C25.3535 37.9581 19.2613 37.9581 15.5054 33.9882L3.79352 21.6062C0.0375782 17.6342 0.0375782 11.1962 3.79352 7.22413C4.89383 6.06189 6.67664 6.06189 7.77695 7.22413L11.6379 11.3072C12.7382 12.4694 12.7382 14.3564 11.6379 15.5187L9.76976 17.4949L19.3948 27.6699L21.2629 25.6937C22.3632 24.5292 24.1482 24.5292 25.2485 25.6937ZM27.5301 18.1565C27.5301 13.0571 23.6057 8.91089 18.7845 8.91089C17.6163 8.91089 16.6713 9.90989 16.6713 11.144C16.6713 12.378 17.6163 13.3792 18.7845 13.3792C21.276 13.3792 23.3038 15.5208 23.3038 18.1565C23.3038 19.3906 24.2488 20.3918 25.4169 20.3918C26.5829 20.3918 27.5301 19.3906 27.5301 18.1565ZM35.9891 18.1565C35.9891 8.12736 28.2716 -0.0322266 18.7845 -0.0322266C17.6163 -0.0322266 16.6713 0.96895 16.6713 2.20301C16.6713 3.43489 17.6163 4.43607 18.7845 4.43607C25.9398 4.43607 31.7629 10.5911 31.7629 18.1565C31.7629 19.3906 32.7101 20.3918 33.876 20.3918C35.0419 20.3918 35.9891 19.3906 35.9891 18.1565Z" fill="#4796B1"/>
</g>
<defs>
<clipPath id="clip0_122_16324">
<rect width="37" height="37" fill="white"/>
</clipPath>
</defs>
</svg>
