<svg width="37" height="37" viewBox="0 0 37 37" fill="none" xmlns="http://www.w3.org/2000/svg">
<path fill-rule="evenodd" clip-rule="evenodd" d="M32.0088 15.0229C32.0088 21.3672 24.9598 29.5316 20.9328 33.6779C19.4437 35.2109 16.8804 35.2506 15.3429 33.7619C11.2974 29.8442 4.38672 22.1139 4.38672 15.0229C4.38672 7.90157 10.569 2.12891 18.1989 2.12891C25.8265 2.12891 32.0088 7.90157 32.0088 15.0229ZM21.0918 15.0182C21.0918 14.2972 20.7829 13.6159 20.2436 13.1119C19.9739 12.8599 19.665 12.6779 19.3192 12.5356C18.2404 12.1039 16.968 12.3559 16.1589 13.1119C15.6172 13.6159 15.3083 14.2972 15.3083 15.0182C15.3083 15.3776 15.3867 15.7369 15.5411 16.0612C15.6564 16.3856 15.8869 16.6749 16.1589 16.9246C16.696 17.4286 17.4313 17.7179 18.2012 17.7179C18.5862 17.7179 18.9319 17.6456 19.3192 17.5009C19.665 17.3562 19.9739 17.1766 20.2436 16.9246C20.5133 16.6749 20.7046 16.3856 20.859 16.0612C21.0135 15.7369 21.0918 15.3776 21.0918 15.0182Z" fill="#4796B1"/>
</svg>
