<svg width="37" height="37" viewBox="0 0 37 37" fill="none" xmlns="http://www.w3.org/2000/svg">
<path fill-rule="evenodd" clip-rule="evenodd" d="M33.0209 8.09766H3.73461C2.22305 8.09766 0.998047 9.32703 0.998047 10.843V28.518C0.998047 30.0361 2.22305 31.2655 3.73461 31.2655H33.0209C34.5324 31.2655 35.7574 30.0361 35.7574 28.518V10.843C35.7574 9.32703 34.5324 8.09766 33.0209 8.09766ZM29.4552 16.3117L19.1324 23.1936C18.9049 23.3467 18.6402 23.4233 18.3777 23.4233C18.1152 23.4233 17.8505 23.3467 17.6209 23.1936L7.30023 16.3117C6.67023 15.8939 6.49742 15.0408 6.91523 14.4086C7.33305 13.7764 8.1818 13.5992 8.8118 14.0236L18.3777 20.4002L27.9437 14.0236C28.5737 13.5992 29.4224 13.7764 29.838 14.4086C30.2559 15.0408 30.0852 15.8939 29.4552 16.3117Z" fill="#4796B1"/>
</svg>
